{"title":"Are.You.Here.2013.720p.BRRip.x264-Fastbet99","uid":11317018,"size":1458645299,"categoryP":"video","categoryS":"hd___movies","magnet":"?xt=urn:btih:a9f5bc1ec068a5834f5deb1a0c1b9c30298393f5&amp;dn=Are.You.Here.2013.720p.BRRip.x264-Fastbet99&amp;tr=udp%3A%2F%2Ftracker.openbittorrent.com%3A80&amp;tr=udp%3A%2F%2Fopen.demonii.com%3A1337&amp;tr=udp%3A%2F%2Ftracker.coppersurfer.tk%3A6969&amp;tr=udp%3A%2F%2Fexodus.desync.com%3A6969","seeders":6,"leechers":0,"uploader":"Fastbet99","files":-1,"time":1414561388,"description":"Are You Here (2013)\n\nIMDB Info\t\t\t\t : http://www.imdb.com/title/tt1545754\n\nSource\t\t\t\t\t : BRMP (Thanks)\nComplete name                            : Are.You.Here.2013.720p.BRRip.x264-Fastbet99.mp4\nFormat                                   : MPEG-4\nFormat profile                           : Base Media\nCodec ID                                 : isom\nFile size                                : 1.36 GiB\nDuration                                 : 1h 53mn\nOverall bit rate mode                    : Variable\nOverall bit rate                         : 1 708 Kbps\n\nVideo\nID                                       : 1\nFormat                                   : AVC\nFormat/Info                              : Advanced Video Codec\nFormat profile                           : &lt;a class=&quot;__cf_email__&quot; href=&quot;/cdn-cgi/l/email-protection&quot; data-cfemail=&quot;a0e8c9c7c8e0ec948e91&quot;&gt;[email&amp;#160;protected]&lt;/a&gt;&lt;script cf-hash='f9e31' type=&quot;text/javascript&quot;&gt;\n/* &lt;![CDATA[ */!function(){try{var t=&quot;currentScript&quot;in document?document.currentScript:function(){for(var t=document.getElementsByTagName(&quot;script&quot;),e=t.length;e--;)if(t[e].getAttribute(&quot;cf-hash&quot;))return t[e]}();if(t&amp;&amp;t.previousSibling){var e,r,n,i,c=t.previousSibling,a=c.getAttribute(&quot;data-cfemail&quot;);if(a){for(e=&quot;&quot;,r=parseInt(a.substr(0,2),16),n=2;a.length-n;n+=2)i=parseInt(a.substr(n,2),16)^r,e+=String.fromCharCode(i);e=document.createTextNode(e),c.parentNode.replaceChild(e,c)}}}catch(u){}}();/* ]]&gt; */&lt;/script&gt;\nFormat settings, CABAC                   : Yes\nFormat settings, ReFrames                : 4 frames\nCodec ID                                 : avc1\nCodec ID/Info                            : Advanced Video Coding\nDuration                                 : 1h 53mn\nBit rate                                 : 1 607 Kbps\nMaximum bit rate                         : 6 925 Kbps\nWidth                                    : 1 280 pixels\nHeight                                   : 720 pixels\nDisplay aspect ratio                     : 16:9\nFrame rate mode                          : Constant\nFrame rate                               : 23.976 fps\nColor space                              : YUV\nChroma subsampling                       : 4:2:0\nBit depth                                : 8 bits\nScan type                                : Progressive\nBits/(Pixel*Frame)                       : 0.073\nStream size                              : 1.28 GiB (94%)\nWriting library                          : x264 core 142 r2431 ac76440\n\nAudio\nID                                       : 2\nFormat                                   : AAC\nFormat/Info                              : Advanced Audio Codec\nFormat profile                           : LC\nCodec ID                                 : 40\nDuration                                 : 1h 53mn\nBit rate mode                            : Variable\nBit rate                                 : 96.0 Kbps\nMaximum bit rate                         : 132 Kbps\nChannel count                            : 2 channels\nChannel positions                        : Front: L R\nSampling rate                            : 48.0 KHz\nCompression mode                         : Lossy\nStream size                              : 78.2 MiB (6%)\nLanguage                                 : English\n\nText\nID                                       : 3\nFormat                                   : Timed Text\nCodec ID                                 : tx3g\nDuration                                 : 1h 49mn\nBit rate mode                            : Variable\nBit rate                                 : 85 bps\nStream size                              : 68.5 KiB (0%)\nLanguage                                 : English\nEncoder\t\t\t\t\t : Fastbet99\n\nScreenshots\n &lt;a href=&quot;\nhttp://lookpic.com/O/i2/608/55O4RU6r.jpeg&quot; rel=&quot;nofollow&quot; target=&quot;_NEW&quot;&gt;\nhttp://lookpic.com/O/i2/608/55O4RU6r.jpeg&lt;/a&gt;\n\nStairway To heaven - Help People With Keep Seed As Long You Can","torrent":{"xt":"urn:btih:a9f5bc1ec068a5834f5deb1a0c1b9c30298393f5","amp;dn":"Are.You.Here.2013.720p.BRRip.x264-Fastbet99","amp;tr":["udp%3A%2F%2Ftracker.openbittorrent.com%3A80","udp%3A%2F%2Fopen.demonii.com%3A1337","udp%3A%2F%2Ftracker.coppersurfer.tk%3A6969","udp%3A%2F%2Fexodus.desync.com%3A6969"],"infoHash":"a9f5bc1ec068a5834f5deb1a0c1b9c30298393f5","infoHashBuffer":{"type":"Buffer","data":[169,245,188,30,192,104,165,131,79,93,235,26,12,27,156,48,41,131,147,245]},"announce":[],"urlList":[]}}